<svg width="74" height="74" viewBox="0 0 74 74" fill="none" xmlns="http://www.w3.org/2000/svg">
<rect width="74" height="74" rx="16" fill="url(#paint0_linear_5_142)"/>
<path d="M32.9619 27.1936C35.4445 27.1936 37.8254 28.1864 39.5809 29.9536C41.3364 31.7209 42.3226 34.1178 42.3226 36.617V42.8992C42.3226 45.3985 41.3364 47.7954 39.5809 49.5626C37.8254 51.3298 35.4445 52.3226 32.9619 52.3226H17.3607C14.8781 52.3226 12.4972 51.3298 10.7417 49.5626C8.98621 47.7954 8 45.3985 8 42.8992V36.617C8 34.1178 8.98621 31.7209 10.7417 29.9536C12.4972 28.1864 14.8781 27.1936 17.3607 27.1936H32.9619ZM32.9619 30.3347H17.3607C15.7596 30.3347 14.2198 30.9542 13.0598 32.0651C11.8997 33.1759 11.2081 34.6931 11.128 36.3029L11.1202 36.617V42.8992C11.1202 44.511 11.7356 46.0612 12.8391 47.229C13.9425 48.3968 15.4496 49.0931 17.0487 49.1737L17.3607 49.1815H32.9619C34.5629 49.1815 36.1027 48.562 37.2628 47.4512C38.4229 46.3403 39.1145 44.8231 39.1945 43.2134L39.2023 42.8992V36.617C39.2023 35.0052 38.587 33.4551 37.4835 32.2872C36.3801 31.1194 34.873 30.4232 33.2739 30.3426L32.9619 30.3347ZM22.0411 35.0464V38.1876H25.1613V41.3287H22.0395L22.0411 44.4698H18.9208L18.9193 41.3287H15.8006V38.1876H18.9208V35.0464H22.0411ZM34.522 41.3287V44.4698H31.4018V41.3287H34.522ZM31.4018 35.0464V38.1876H28.2815V35.0464H31.4018Z" fill="white"/>
<path d="M64.4366 48.304C64.2827 48.4319 64.106 48.527 63.9166 48.5839C63.7273 48.6408 63.529 48.6582 63.3331 48.6354C63.1372 48.6125 62.9476 48.5497 62.7751 48.4505C62.6026 48.3514 62.4507 48.2179 62.328 48.0577C62.152 47.8295 58.0085 42.3222 58.0085 31.5305C58.0085 29.7425 57.3245 28.0277 56.1071 26.7634C54.8896 25.4991 53.2384 24.7889 51.5167 24.7889C49.795 24.7889 48.1437 25.4991 46.9263 26.7634C45.7088 28.0277 45.0249 29.7425 45.0249 31.5305C45.0249 42.3222 40.8789 47.8295 40.7029 48.0577C40.4554 48.3806 40.0945 48.5881 39.6996 48.6347C39.3048 48.6812 38.9083 48.563 38.5974 48.306C38.2865 48.049 38.0866 47.6742 38.0418 47.2642C37.997 46.8541 38.1108 46.4424 38.3583 46.1195C38.4083 46.0508 42.0287 41.132 42.0287 31.5305C42.0287 28.9173 43.0283 26.4111 44.8077 24.5633C46.587 22.7155 49.0003 21.6774 51.5167 21.6774C54.0331 21.6774 56.4464 22.7155 58.2257 24.5633C60.0051 26.4111 61.0047 28.9173 61.0047 31.5305C61.0047 41.1489 64.6376 46.0715 64.675 46.1208C64.9217 46.4434 65.0351 46.8543 64.9904 47.2636C64.9457 47.6729 64.7466 48.047 64.4366 48.304ZM48.5205 35.6791C48.9155 35.6791 49.3017 35.5575 49.6302 35.3295C49.9587 35.1016 50.2147 34.7776 50.3659 34.3986C50.5171 34.0196 50.5566 33.6025 50.4796 33.2001C50.4025 32.7977 50.2123 32.4281 49.9329 32.138C49.6535 31.8479 49.2976 31.6504 48.9102 31.5703C48.5227 31.4903 48.1211 31.5314 47.7561 31.6884C47.3911 31.8454 47.0791 32.1112 46.8596 32.4523C46.6401 32.7935 46.523 33.1945 46.523 33.6048C46.523 34.1549 46.7334 34.6825 47.108 35.0716C47.4826 35.4606 47.9907 35.6791 48.5205 35.6791ZM56.5104 33.6048C56.5104 33.1945 56.3932 32.7935 56.1737 32.4523C55.9543 32.1112 55.6423 31.8454 55.2773 31.6884C54.9123 31.5314 54.5107 31.4903 54.1232 31.5703C53.7357 31.6504 53.3798 31.8479 53.1005 32.138C52.8211 32.4281 52.6309 32.7977 52.5538 33.2001C52.4767 33.6025 52.5163 34.0196 52.6675 34.3986C52.8187 34.7776 53.0747 35.1016 53.4032 35.3295C53.7316 35.5575 54.1178 35.6791 54.5129 35.6791C55.0427 35.6791 55.5507 35.4606 55.9253 35.0716C56.2999 34.6825 56.5104 34.1549 56.5104 33.6048ZM47.4294 40.2167L50.9249 41.7725C51.1113 41.8554 51.312 41.8982 51.5148 41.8982C51.7176 41.8982 51.9183 41.8554 52.1047 41.7725L55.6003 40.2167C55.938 40.0367 56.1973 39.7303 56.3258 39.3594C56.4543 38.9885 56.4425 38.5808 56.2927 38.2186C56.1429 37.8564 55.8663 37.5668 55.5187 37.4083C55.1712 37.2497 54.7787 37.2341 54.4205 37.3645L51.5154 38.661L48.6104 37.3645C48.2519 37.2328 47.8587 37.2476 47.5103 37.4058C47.162 37.564 46.8846 37.8539 46.7344 38.2166C46.5842 38.5793 46.5725 38.9878 46.7015 39.3592C46.8305 39.7306 47.0907 40.0372 47.4294 40.2167ZM51.5167 43.9765C49.7276 43.9792 48.0049 44.6803 46.6903 45.9406C46.5453 46.0788 46.4279 46.2452 46.3448 46.4305C46.2618 46.6158 46.2147 46.8162 46.2062 47.0204C46.1977 47.2246 46.2281 47.4285 46.2955 47.6205C46.3629 47.8125 46.4661 47.9888 46.5992 48.1394C46.7322 48.29 46.8925 48.4119 47.0709 48.4981C47.2493 48.5844 47.4423 48.6333 47.6389 48.6421C48.036 48.6598 48.4236 48.5131 48.7165 48.234C49.4762 47.4975 50.4767 47.0878 51.5161 47.0878C52.5554 47.0878 53.556 47.4975 54.3156 48.234C54.4607 48.3722 54.6304 48.4793 54.8153 48.5493C55.0002 48.6194 55.1966 48.6509 55.3932 48.6421C55.5898 48.6333 55.7828 48.5844 55.9612 48.4981C56.1396 48.4119 56.2999 48.29 56.433 48.1394C56.566 47.9888 56.6692 47.8125 56.7366 47.6205C56.804 47.4285 56.8344 47.2246 56.8259 47.0204C56.8175 46.8162 56.7703 46.6158 56.6873 46.4305C56.6042 46.2452 56.4868 46.0788 56.3418 45.9406C55.0277 44.6804 53.3054 43.9793 51.5167 43.9765Z" fill="white"/>
<defs>
<linearGradient id="paint0_linear_5_142" x1="37" y1="0" x2="37" y2="74" gradientUnits="userSpaceOnUse">
<stop stop-color="#3400AE"/>
<stop offset="1" stop-color="#820080"/>
</linearGradient>
</defs>
</svg>
